<mxfile host="app.diagrams.net" agent="Mozilla/5.0 (Macintosh; Intel Mac OS X 10_15_7) AppleWebKit/537.36 (KHTML, like Gecko) Chrome/134.0.0.0 Safari/537.36" version="26.2.12">
  <diagram name="Page-1" id="L4BYxdyoDgjCl5VEEsPM">
    <mxGraphModel dx="1466" dy="443" grid="0" gridSize="10" guides="1" tooltips="1" connect="1" arrows="1" fold="1" page="1" pageScale="1" pageWidth="827" pageHeight="1169" math="0" shadow="0">
      <root>
        <mxCell id="0" />
        <mxCell id="1" parent="0" />
        <mxCell id="tcdMBwPfRS6agX5NxEtI-50" value=":Event Calculation Job" style="shape=umlLifeline;perimeter=lifelinePerimeter;whiteSpace=wrap;html=1;container=1;dropTarget=0;collapsible=0;recursiveResize=0;outlineConnect=0;portConstraint=eastwest;newEdgeStyle={&quot;curved&quot;:0,&quot;rounded&quot;:0};size=30;" parent="1" vertex="1">
          <mxGeometry x="-280" y="1070" width="100" height="410" as="geometry" />
        </mxCell>
        <mxCell id="tcdMBwPfRS6agX5NxEtI-51" value="" style="html=1;points=[[0,0,0,0,5],[0,1,0,0,-5],[1,0,0,0,5],[1,1,0,0,-5]];perimeter=orthogonalPerimeter;outlineConnect=0;targetShapes=umlLifeline;portConstraint=eastwest;newEdgeStyle={&quot;curved&quot;:0,&quot;rounded&quot;:0};" parent="tcdMBwPfRS6agX5NxEtI-50" vertex="1">
          <mxGeometry x="45" y="80" width="10" height="290" as="geometry" />
        </mxCell>
        <mxCell id="tcdMBwPfRS6agX5NxEtI-60" value="" style="html=1;points=[[0,0,0,0,5],[0,1,0,0,-5],[1,0,0,0,5],[1,1,0,0,-5]];perimeter=orthogonalPerimeter;outlineConnect=0;targetShapes=umlLifeline;portConstraint=eastwest;newEdgeStyle={&quot;curved&quot;:0,&quot;rounded&quot;:0};" parent="tcdMBwPfRS6agX5NxEtI-50" vertex="1">
          <mxGeometry x="50" y="120" width="10" height="40" as="geometry" />
        </mxCell>
        <mxCell id="tcdMBwPfRS6agX5NxEtI-61" value="1. Event Trigger" style="html=1;align=left;spacingLeft=2;endArrow=block;rounded=0;edgeStyle=orthogonalEdgeStyle;curved=0;rounded=0;" parent="tcdMBwPfRS6agX5NxEtI-50" target="tcdMBwPfRS6agX5NxEtI-60" edge="1">
          <mxGeometry x="0.0084" relative="1" as="geometry">
            <mxPoint x="55" y="100" as="sourcePoint" />
            <Array as="points">
              <mxPoint x="85" y="130" />
            </Array>
            <mxPoint as="offset" />
          </mxGeometry>
        </mxCell>
        <mxCell id="tcdMBwPfRS6agX5NxEtI-64" value="" style="html=1;points=[[0,0,0,0,5],[0,1,0,0,-5],[1,0,0,0,5],[1,1,0,0,-5]];perimeter=orthogonalPerimeter;outlineConnect=0;targetShapes=umlLifeline;portConstraint=eastwest;newEdgeStyle={&quot;curved&quot;:0,&quot;rounded&quot;:0};" parent="tcdMBwPfRS6agX5NxEtI-50" vertex="1">
          <mxGeometry x="50" y="200" width="10" height="40" as="geometry" />
        </mxCell>
        <mxCell id="tcdMBwPfRS6agX5NxEtI-65" value="2. check enrichment flag" style="html=1;align=left;spacingLeft=2;endArrow=block;rounded=0;edgeStyle=orthogonalEdgeStyle;curved=0;rounded=0;" parent="tcdMBwPfRS6agX5NxEtI-50" target="tcdMBwPfRS6agX5NxEtI-64" edge="1">
          <mxGeometry x="0.0053" relative="1" as="geometry">
            <mxPoint x="55" y="180" as="sourcePoint" />
            <Array as="points">
              <mxPoint x="85" y="210" />
            </Array>
            <mxPoint as="offset" />
          </mxGeometry>
        </mxCell>
        <mxCell id="tcdMBwPfRS6agX5NxEtI-52" value=":Event Center Service" style="shape=umlLifeline;perimeter=lifelinePerimeter;whiteSpace=wrap;html=1;container=1;dropTarget=0;collapsible=0;recursiveResize=0;outlineConnect=0;portConstraint=eastwest;newEdgeStyle={&quot;curved&quot;:0,&quot;rounded&quot;:0};" parent="1" vertex="1">
          <mxGeometry x="-100" y="1070" width="100" height="430" as="geometry" />
        </mxCell>
        <mxCell id="tcdMBwPfRS6agX5NxEtI-55" value="" style="html=1;points=[[0,0,0,0,5],[0,1,0,0,-5],[1,0,0,0,5],[1,1,0,0,-5]];perimeter=orthogonalPerimeter;outlineConnect=0;targetShapes=umlLifeline;portConstraint=eastwest;newEdgeStyle={&quot;curved&quot;:0,&quot;rounded&quot;:0};" parent="tcdMBwPfRS6agX5NxEtI-52" vertex="1">
          <mxGeometry x="45" y="60" width="10" height="80" as="geometry" />
        </mxCell>
        <mxCell id="tcdMBwPfRS6agX5NxEtI-58" value="" style="html=1;points=[[0,0,0,0,5],[0,1,0,0,-5],[1,0,0,0,5],[1,1,0,0,-5]];perimeter=orthogonalPerimeter;outlineConnect=0;targetShapes=umlLifeline;portConstraint=eastwest;newEdgeStyle={&quot;curved&quot;:0,&quot;rounded&quot;:0};" parent="tcdMBwPfRS6agX5NxEtI-52" vertex="1">
          <mxGeometry x="50" y="90" width="10" height="40" as="geometry" />
        </mxCell>
        <mxCell id="tcdMBwPfRS6agX5NxEtI-59" value="1. Refresh Redis Enrichment flag&amp;nbsp;&lt;div&gt;by event type&lt;/div&gt;" style="html=1;align=left;spacingLeft=2;endArrow=block;rounded=0;edgeStyle=orthogonalEdgeStyle;curved=0;rounded=0;" parent="tcdMBwPfRS6agX5NxEtI-52" target="tcdMBwPfRS6agX5NxEtI-58" edge="1">
          <mxGeometry x="0.0053" relative="1" as="geometry">
            <mxPoint x="55" y="70" as="sourcePoint" />
            <Array as="points">
              <mxPoint x="85" y="100" />
            </Array>
            <mxPoint as="offset" />
          </mxGeometry>
        </mxCell>
        <mxCell id="tcdMBwPfRS6agX5NxEtI-56" value=":Other System Service" style="shape=umlLifeline;perimeter=lifelinePerimeter;whiteSpace=wrap;html=1;container=1;dropTarget=0;collapsible=0;recursiveResize=0;outlineConnect=0;portConstraint=eastwest;newEdgeStyle={&quot;curved&quot;:0,&quot;rounded&quot;:0};" parent="1" vertex="1">
          <mxGeometry x="100" y="1070" width="100" height="420" as="geometry" />
        </mxCell>
        <mxCell id="tcdMBwPfRS6agX5NxEtI-57" value="" style="html=1;points=[[0,0,0,0,5],[0,1,0,0,-5],[1,0,0,0,5],[1,1,0,0,-5]];perimeter=orthogonalPerimeter;outlineConnect=0;targetShapes=umlLifeline;portConstraint=eastwest;newEdgeStyle={&quot;curved&quot;:0,&quot;rounded&quot;:0};" parent="tcdMBwPfRS6agX5NxEtI-56" vertex="1">
          <mxGeometry x="45" y="60" width="10" height="80" as="geometry" />
        </mxCell>
        <mxCell id="tcdMBwPfRS6agX5NxEtI-66" value="alt" style="shape=umlFrame;whiteSpace=wrap;html=1;pointerEvents=0;" parent="1" vertex="1">
          <mxGeometry x="-270" y="1290" width="480" height="170" as="geometry" />
        </mxCell>
        <mxCell id="tcdMBwPfRS6agX5NxEtI-67" value="flag=true" style="text;align=center;fontStyle=1;verticalAlign=middle;spacingLeft=3;spacingRight=3;strokeColor=none;rotatable=0;points=[[0,0.5],[1,0.5]];portConstraint=eastwest;html=1;" parent="1" vertex="1">
          <mxGeometry x="-270" y="1320" width="80" height="26" as="geometry" />
        </mxCell>
        <mxCell id="tcdMBwPfRS6agX5NxEtI-73" style="edgeStyle=orthogonalEdgeStyle;rounded=0;orthogonalLoop=1;jettySize=auto;html=1;curved=0;" parent="1" source="tcdMBwPfRS6agX5NxEtI-69" target="tcdMBwPfRS6agX5NxEtI-72" edge="1">
          <mxGeometry relative="1" as="geometry">
            <Array as="points">
              <mxPoint x="50" y="1370" />
              <mxPoint x="50" y="1370" />
            </Array>
          </mxGeometry>
        </mxCell>
        <mxCell id="tcdMBwPfRS6agX5NxEtI-74" value="4. api/rpc call to retrieve data" style="edgeLabel;html=1;align=center;verticalAlign=middle;resizable=0;points=[];" parent="tcdMBwPfRS6agX5NxEtI-73" vertex="1" connectable="0">
          <mxGeometry x="-0.4692" relative="1" as="geometry">
            <mxPoint x="34" y="-10" as="offset" />
          </mxGeometry>
        </mxCell>
        <mxCell id="tcdMBwPfRS6agX5NxEtI-69" value="" style="html=1;points=[[0,0,0,0,5],[0,1,0,0,-5],[1,0,0,0,5],[1,1,0,0,-5]];perimeter=orthogonalPerimeter;outlineConnect=0;targetShapes=umlLifeline;portConstraint=eastwest;newEdgeStyle={&quot;curved&quot;:0,&quot;rounded&quot;:0};" parent="1" vertex="1">
          <mxGeometry x="-55" y="1300" width="10" height="150" as="geometry" />
        </mxCell>
        <mxCell id="tcdMBwPfRS6agX5NxEtI-70" style="edgeStyle=orthogonalEdgeStyle;rounded=0;orthogonalLoop=1;jettySize=auto;html=1;curved=0;" parent="1" source="tcdMBwPfRS6agX5NxEtI-51" target="tcdMBwPfRS6agX5NxEtI-69" edge="1">
          <mxGeometry relative="1" as="geometry">
            <Array as="points">
              <mxPoint x="-140" y="1360" />
              <mxPoint x="-140" y="1360" />
            </Array>
          </mxGeometry>
        </mxCell>
        <mxCell id="tcdMBwPfRS6agX5NxEtI-71" value="3. enrichment event" style="edgeLabel;html=1;align=center;verticalAlign=middle;resizable=0;points=[];" parent="tcdMBwPfRS6agX5NxEtI-70" vertex="1" connectable="0">
          <mxGeometry x="-0.6084" relative="1" as="geometry">
            <mxPoint x="41" y="-10" as="offset" />
          </mxGeometry>
        </mxCell>
        <mxCell id="tcdMBwPfRS6agX5NxEtI-72" value="" style="html=1;points=[[0,0,0,0,5],[0,1,0,0,-5],[1,0,0,0,5],[1,1,0,0,-5]];perimeter=orthogonalPerimeter;outlineConnect=0;targetShapes=umlLifeline;portConstraint=eastwest;newEdgeStyle={&quot;curved&quot;:0,&quot;rounded&quot;:0};" parent="1" vertex="1">
          <mxGeometry x="145" y="1300" width="10" height="80" as="geometry" />
        </mxCell>
        <mxCell id="tcdMBwPfRS6agX5NxEtI-77" style="edgeStyle=orthogonalEdgeStyle;rounded=0;orthogonalLoop=1;jettySize=auto;html=1;curved=0;dashed=1;" parent="1" source="tcdMBwPfRS6agX5NxEtI-75" target="tcdMBwPfRS6agX5NxEtI-51" edge="1">
          <mxGeometry relative="1" as="geometry">
            <Array as="points">
              <mxPoint x="-190" y="1420" />
              <mxPoint x="-190" y="1420" />
            </Array>
          </mxGeometry>
        </mxCell>
        <mxCell id="tcdMBwPfRS6agX5NxEtI-78" value="3.1 enriched event" style="edgeLabel;html=1;align=center;verticalAlign=middle;resizable=0;points=[];" parent="tcdMBwPfRS6agX5NxEtI-77" vertex="1" connectable="0">
          <mxGeometry x="0.5869" y="-1" relative="1" as="geometry">
            <mxPoint x="29" y="-9" as="offset" />
          </mxGeometry>
        </mxCell>
        <mxCell id="tcdMBwPfRS6agX5NxEtI-75" value="" style="html=1;points=[[0,0,0,0,5],[0,1,0,0,-5],[1,0,0,0,5],[1,1,0,0,-5]];perimeter=orthogonalPerimeter;outlineConnect=0;targetShapes=umlLifeline;portConstraint=eastwest;newEdgeStyle={&quot;curved&quot;:0,&quot;rounded&quot;:0};" parent="1" vertex="1">
          <mxGeometry x="-50" y="1400" width="10" height="40" as="geometry" />
        </mxCell>
        <mxCell id="tcdMBwPfRS6agX5NxEtI-76" value="5. transform" style="html=1;align=left;spacingLeft=2;endArrow=block;rounded=0;edgeStyle=orthogonalEdgeStyle;curved=0;rounded=0;" parent="1" target="tcdMBwPfRS6agX5NxEtI-75" edge="1">
          <mxGeometry x="0.0084" relative="1" as="geometry">
            <mxPoint x="-45" y="1380" as="sourcePoint" />
            <Array as="points">
              <mxPoint x="-15" y="1410" />
            </Array>
            <mxPoint as="offset" />
          </mxGeometry>
        </mxCell>
      </root>
    </mxGraphModel>
  </diagram>
</mxfile>
